<?xml version="1.0" standalone="no"?><!DOCTYPE svg PUBLIC "-//W3C//DTD SVG 1.1//EN" "http://www.w3.org/Graphics/SVG/1.1/DTD/svg11.dtd"><svg t="1744899683800" class="icon" viewBox="0 0 1024 1024" version="1.1" xmlns="http://www.w3.org/2000/svg" p-id="9681" xmlns:xlink="http://www.w3.org/1999/xlink" width="256" height="256"><path d="M374.784 102.912C442.389333 73.237333 476.181333 58.389333 512 58.389333c35.818667 0 69.610667 14.848 137.216 44.522667l131.413333 57.685333c72.874667 32 109.312 48 109.866667 75.242667 0.554667 27.264-35.2 44.714667-106.752 79.594667l-196.906667 96.064c-36.757333 17.92-55.125333 26.88-74.837333 26.88-19.712 0-38.08-8.96-74.816-26.88l-196.928-96.064c-71.530667-34.88-107.306667-52.330667-106.752-79.573334 0.554667-27.264 36.992-43.264 109.866667-75.264l131.413333-57.685333z" fill="#C3B5FF" p-id="9682"></path><path d="M625.429333 476.629333c-34.432 17.194667-51.626667 25.813333-61.205333 41.28C554.666667 533.376 554.666667 552.618667 554.666667 591.104v248.490667c0 63.317333 0 94.997333 20.650666 107.434666 20.672 12.437333 48.64-2.389333 104.618667-32l101.184-53.589333c66.346667-35.114667 99.541333-52.693333 117.866667-83.157333 18.346667-30.464 18.346667-67.989333 18.346666-143.082667v-166.464c0-61.866667 0-92.821333-20.245333-105.322667-20.224-12.522667-47.893333 1.322667-103.253333 29.013334l-168.405334 84.202666zM398.570667 476.629333c34.432 17.194667 51.626667 25.813333 61.205333 41.28 9.557333 15.466667 9.557333 34.709333 9.557333 73.194667v248.490667c0 63.317333 0 94.997333-20.650666 107.434666-20.672 12.437333-48.64-2.389333-104.618667-32l-101.184-53.589333c-66.346667-35.114667-99.52-52.693333-117.866667-83.157333C106.666667 747.818667 106.666667 710.293333 106.666667 635.2v-166.464c0-61.866667 0-92.821333 20.245333-105.322667 20.224-12.522667 47.893333 1.322667 103.253333 29.013334l168.405334 84.202666z" fill="#7A58DB" p-id="9683"></path></svg>